<svg xmlns="http://www.w3.org/2000/svg" xmlns:xlink="http://www.w3.org/1999/xlink" width="1080" zoomAndPan="magnify" viewBox="0 0 810 1012.49997" height="1350" preserveAspectRatio="xMidYMid meet" version="1.0"><path fill="#000000" d="M 769.738281 622.34375 C 768.445312 612.152344 767.160156 601.859375 765.875 591.566406 C 765.5 584.203125 764.078125 577.042969 761.613281 570.09375 C 756.179688 558.21875 740.144531 557.921875 728.863281 557.234375 C 726.398438 557.082031 724.109375 556.371094 721.996094 555.09375 C 720.558594 554.015625 719.242188 552.804688 718.050781 551.457031 C 716.863281 550.113281 715.820312 548.65625 714.929688 547.097656 C 714.042969 545.535156 713.320312 543.902344 712.765625 542.191406 C 712.210938 540.480469 711.835938 538.734375 711.644531 536.945312 C 706.417969 512.160156 703.761719 485.101562 660.386719 460.644531 C 659.746094 460.25 659.136719 459.808594 658.5625 459.316406 C 657.992188 458.828125 657.460938 458.292969 656.972656 457.71875 C 656.484375 457.144531 656.046875 456.53125 655.65625 455.886719 C 655.265625 455.242188 654.925781 454.570312 654.644531 453.871094 C 654.359375 453.171875 654.132812 452.453125 653.964844 451.71875 C 653.796875 450.984375 653.6875 450.238281 653.636719 449.484375 C 653.585938 448.734375 653.59375 447.980469 653.664062 447.230469 C 653.730469 446.480469 653.859375 445.738281 654.046875 445.007812 C 660.1875 418.390625 674.535156 363.46875 640.199219 349.214844 C 608.527344 336.15625 578.542969 364.953125 557.578125 384.742188 C 556.171875 386.105469 554.554688 387.136719 552.722656 387.828125 C 545.109375 400.753906 536.003906 412.523438 525.40625 423.136719 C 522.53125 426.015625 519.664062 428.683594 516.695312 431.261719 C 516.511719 431.949219 516.273438 432.617188 515.980469 433.265625 C 515.691406 433.914062 515.347656 434.539062 514.957031 435.132812 C 514.566406 435.726562 514.128906 436.289062 513.648438 436.8125 C 513.167969 437.339844 512.648438 437.820312 512.09375 438.265625 C 511.535156 438.707031 510.945312 439.101562 510.324219 439.449219 C 509.703125 439.800781 509.058594 440.097656 508.390625 440.339844 C 507.722656 440.585938 507.039062 440.777344 506.339844 440.914062 C 505.640625 441.050781 504.933594 441.132812 504.222656 441.15625 C 502.855469 441.296875 501.503906 441.199219 500.171875 440.855469 C 488.417969 438.085938 476.542969 436.007812 464.546875 434.613281 C 452.171875 433.179688 439.757812 432.433594 427.300781 432.378906 C 414.847656 432.324219 402.425781 432.957031 390.039062 434.28125 C 377.65625 435.605469 365.382812 437.609375 353.21875 440.296875 C 341.054688 442.984375 329.078125 446.335938 317.289062 450.351562 C 316.890625 450.453125 316.601562 450.550781 316.292969 450.652344 C 315.871094 450.773438 315.4375 450.871094 315.003906 450.949219 C 314.570312 451.023438 314.128906 451.078125 313.691406 451.105469 C 313.25 451.132812 312.808594 451.136719 312.367188 451.121094 C 311.925781 451.101562 311.484375 451.058594 311.046875 450.988281 C 310.613281 450.921875 310.179688 450.832031 309.753906 450.71875 C 309.324219 450.605469 308.90625 450.46875 308.492188 450.308594 C 308.082031 450.148438 307.679688 449.96875 307.285156 449.765625 C 306.894531 449.5625 306.511719 449.339844 306.144531 449.097656 C 305.777344 448.851562 305.421875 448.589844 305.082031 448.308594 C 304.742188 448.023438 304.417969 447.722656 304.113281 447.40625 C 303.804688 447.089844 303.515625 446.757812 303.242188 446.40625 C 302.972656 446.058594 302.722656 445.695312 302.488281 445.320312 C 302.257812 444.945312 302.046875 444.554688 301.855469 444.15625 C 301.667969 443.757812 301.5 443.351562 301.351562 442.933594 C 301.207031 442.515625 301.082031 442.09375 300.984375 441.660156 C 300.882812 441.230469 300.808594 440.796875 300.753906 440.359375 C 294.628906 435.894531 288.820312 431.046875 283.335938 425.816406 C 282.449219 425.019531 281.652344 424.230469 280.566406 423.136719 C 272.886719 415.453125 265.984375 407.121094 259.863281 398.140625 C 255.269531 400.117188 250.753906 402.253906 246.3125 404.546875 C 241.871094 406.839844 237.519531 409.289062 233.25 411.890625 C 228.980469 414.492188 224.808594 417.242188 220.738281 420.140625 C 216.664062 423.035156 212.695312 426.070312 208.835938 429.246094 C 204.976562 432.425781 201.234375 435.734375 197.605469 439.171875 C 193.980469 442.613281 190.480469 446.179688 187.105469 449.867188 C 183.730469 453.554688 180.492188 457.355469 177.382812 461.273438 C 174.277344 465.1875 171.3125 469.207031 168.492188 473.335938 C 165.667969 477.460938 162.996094 481.679688 160.472656 485.996094 C 157.945312 490.308594 155.578125 494.707031 153.363281 499.1875 C 151.148438 503.667969 149.09375 508.222656 147.203125 512.851562 C 145.308594 517.476562 143.582031 522.164062 142.019531 526.914062 C 140.460938 531.660156 139.066406 536.457031 137.84375 541.304688 C 136.621094 546.152344 135.570312 551.035156 134.691406 555.957031 C 133.8125 560.878906 133.109375 565.824219 132.578125 570.792969 C 132.050781 575.765625 131.695312 580.746094 131.519531 585.742188 L 115.183594 586.070312 L 112.695312 586.371094 C 113.515625 583.609375 114.117188 580.800781 114.507812 577.949219 C 114.898438 575.097656 115.066406 572.230469 115.015625 569.351562 C 114.964844 566.472656 114.695312 563.613281 114.207031 560.777344 C 113.714844 557.9375 113.015625 555.15625 112.097656 552.425781 C 111.664062 551.089844 111.148438 549.785156 110.546875 548.515625 C 109.949219 547.246094 109.269531 546.019531 108.515625 544.835938 C 107.761719 543.648438 106.933594 542.519531 106.035156 541.4375 C 105.136719 540.359375 104.175781 539.339844 103.144531 538.382812 C 102.117188 537.425781 101.035156 536.535156 99.894531 535.71875 C 98.753906 534.898438 97.566406 534.152344 96.332031 533.484375 C 95.097656 532.8125 93.824219 532.222656 92.515625 531.714844 C 91.207031 531.207031 89.871094 530.785156 88.507812 530.445312 C 85.785156 529.917969 83.042969 529.703125 80.273438 529.804688 C 77.503906 529.90625 74.78125 530.320312 72.105469 531.042969 C 69.429688 531.769531 66.875 532.785156 64.433594 534.097656 C 61.992188 535.40625 59.730469 536.976562 57.648438 538.808594 C 39.828125 554.238281 43.710938 583.003906 59.539062 598.234375 C 62.125 600.699219 64.945312 602.855469 68 604.707031 C 67.703125 605.003906 67.503906 605.203125 67.402344 605.203125 C 65.808594 606.296875 64.21875 607.292969 62.625 608.191406 C 61.929688 608.488281 61.332031 608.886719 60.632812 609.183594 C 60.183594 609.421875 59.71875 609.621094 59.242188 609.78125 C 55.875 611.082031 52.425781 612.078125 48.886719 612.769531 C 48.015625 613.015625 47.175781 613.347656 46.367188 613.757812 C 45.558594 614.167969 44.796875 614.65625 44.085938 615.214844 C 43.371094 615.773438 42.71875 616.398438 42.128906 617.085938 C 41.535156 617.773438 41.015625 618.511719 40.570312 619.300781 C 40.121094 620.089844 39.753906 620.914062 39.46875 621.773438 C 39.183594 622.632812 38.980469 623.515625 38.867188 624.414062 C 38.753906 625.3125 38.726562 626.214844 38.785156 627.121094 C 38.847656 628.023438 38.996094 628.914062 39.230469 629.792969 C 39.496094 630.65625 39.839844 631.492188 40.265625 632.292969 C 40.6875 633.09375 41.183594 633.847656 41.753906 634.554688 C 42.320312 635.261719 42.949219 635.90625 43.640625 636.496094 C 44.332031 637.082031 45.074219 637.597656 45.863281 638.042969 C 46.652344 638.488281 47.476562 638.855469 48.335938 639.140625 C 49.195312 639.429688 50.074219 639.632812 50.972656 639.753906 C 51.871094 639.875 52.773438 639.910156 53.679688 639.855469 C 54.582031 639.804688 55.476562 639.667969 56.355469 639.445312 C 60.460938 638.617188 64.46875 637.4375 68.367188 635.902344 C 72.269531 634.371094 76.007812 632.507812 79.582031 630.316406 C 83.15625 628.125 86.511719 625.640625 89.648438 622.863281 C 92.785156 620.082031 95.65625 617.050781 98.261719 613.765625 C 102.59375 614.054688 118.667969 613.765625 132.695312 613.367188 C 133.671875 622.046875 135.234375 630.621094 137.382812 639.089844 C 138.355469 642.859375 139.425781 646.601562 140.601562 650.316406 C 141.773438 654.027344 143.050781 657.707031 144.421875 661.351562 C 145.796875 664.992188 147.269531 668.597656 148.835938 672.160156 C 150.40625 675.726562 152.070312 679.246094 153.832031 682.71875 C 155.59375 686.191406 157.445312 689.617188 159.390625 692.988281 C 161.335938 696.363281 163.375 699.679688 165.5 702.941406 C 167.625 706.203125 169.839844 709.40625 172.136719 712.550781 C 174.4375 715.691406 176.820312 718.769531 179.289062 721.785156 C 181.753906 724.796875 184.300781 727.742188 186.929688 730.617188 C 189.554688 733.492188 192.257812 736.292969 195.035156 739.023438 C 197.8125 741.75 200.664062 744.402344 203.585938 746.976562 C 206.507812 749.550781 209.5 752.042969 212.554688 754.453125 C 215.613281 756.867188 218.734375 759.191406 221.917969 761.433594 C 225.101562 763.679688 228.34375 765.832031 231.644531 767.898438 C 234.945312 769.964844 238.300781 771.941406 241.707031 773.824219 C 245.117188 775.710938 248.574219 777.5 252.078125 779.195312 C 252.910156 779.3125 253.726562 779.496094 254.527344 779.757812 C 255.324219 780.015625 256.097656 780.339844 256.839844 780.734375 C 257.582031 781.128906 258.28125 781.582031 258.945312 782.097656 C 259.605469 782.617188 260.21875 783.1875 260.78125 783.8125 C 261.34375 784.4375 261.847656 785.105469 262.289062 785.820312 C 262.734375 786.53125 263.113281 787.277344 263.425781 788.058594 C 263.738281 788.835938 263.980469 789.640625 264.152344 790.460938 C 264.324219 791.285156 264.425781 792.113281 264.449219 792.953125 C 265.113281 802.949219 265.804688 812.941406 266.523438 822.9375 C 267.21875 832.136719 267.316406 841.542969 268.601562 850.648438 C 268.703125 850.738281 269.398438 854.304688 269.496094 854.800781 C 269.917969 856.660156 270.476562 858.476562 271.179688 860.246094 C 271.28125 860.246094 272.5625 862.515625 273.0625 863.410156 L 273.152344 863.511719 C 273.851562 864.101562 274.511719 864.726562 275.140625 865.394531 C 275.339844 865.394531 277.519531 867.175781 278.019531 867.464844 C 278.707031 867.761719 279.304688 868.160156 280.011719 868.457031 C 280.199219 868.558594 280.398438 868.625 280.605469 868.65625 C 282.289062 869.15625 283.871094 869.742188 285.585938 870.140625 C 286.789062 870.296875 287.976562 870.527344 289.148438 870.835938 C 296.195312 871.558594 303.253906 871.691406 310.320312 871.226562 C 312.203125 871.125 313.984375 871.027344 315.867188 870.835938 C 316.136719 870.855469 316.402344 870.820312 316.660156 870.738281 C 317.449219 870.636719 318.246094 870.441406 319.03125 870.339844 C 319.527344 870.242188 322.394531 869.246094 322.695312 869.246094 C 323.445312 868.890625 324.171875 868.496094 324.875 868.058594 C 325.273438 867.671875 325.460938 867.363281 325.660156 867.273438 C 325.960938 866.777344 326.257812 866.179688 326.558594 865.691406 C 326.558594 865.394531 327.441406 862.226562 327.550781 861.710938 C 327.640625 861.347656 327.707031 860.984375 327.75 860.613281 L 327.75 861.011719 C 327.808594 860.789062 327.84375 860.558594 327.851562 860.324219 C 327.867188 859.5625 327.933594 858.800781 328.050781 858.046875 C 328.347656 855.765625 328.449219 853.398438 328.746094 851.019531 C 329.53125 841.222656 330.417969 831.328125 331.316406 821.433594 C 331.398438 820.632812 331.53125 819.839844 331.714844 819.054688 C 331.777344 818.195312 331.921875 817.351562 332.148438 816.523438 C 332.371094 815.691406 332.667969 814.890625 333.042969 814.117188 C 333.421875 813.34375 333.863281 812.609375 334.375 811.921875 C 334.890625 811.230469 335.460938 810.59375 336.09375 810.011719 C 336.726562 809.429688 337.410156 808.910156 338.140625 808.457031 C 338.871094 808.003906 339.636719 807.621094 340.4375 807.3125 C 341.242188 807 342.066406 806.769531 342.910156 806.613281 C 343.757812 806.460938 344.609375 806.386719 345.46875 806.394531 C 398.695312 813.46875 452.070312 814.894531 505.597656 810.664062 C 505.996094 810.664062 506.394531 810.761719 506.792969 810.761719 C 508.535156 810.976562 510.207031 811.449219 511.808594 812.171875 C 513.410156 812.898438 514.867188 813.84375 516.179688 815.011719 C 525.527344 823.753906 517.902344 841.710938 524.917969 858.8125 C 528.214844 866.777344 532.027344 868.210938 532.882812 868.46875 C 534.105469 868.855469 537.808594 869.664062 539.542969 869.992188 C 540.539062 870.179688 541.53125 870.328125 542.527344 870.5 L 543.523438 870.617188 C 547.734375 871.039062 551.957031 871.175781 556.1875 871.027344 C 558.464844 870.957031 560.726562 870.726562 563.003906 870.539062 L 563.214844 870.539062 C 564.175781 870.4375 565.128906 870.277344 566.070312 870.050781 C 572.589844 868.140625 575.84375 867.195312 577.746094 864.945312 C 578.964844 862.082031 579.894531 859.128906 580.535156 856.085938 C 581.355469 853.097656 582.082031 850.089844 582.714844 847.054688 C 582.984375 845.761719 583.230469 844.457031 583.460938 843.15625 C 583.53125 842.796875 583.878906 840.597656 584.019531 839.820312 C 584.019531 839.453125 584.386719 836.742188 584.425781 836.324219 C 584.554688 835 584.664062 833.679688 584.765625 832.34375 C 585.0625 828.082031 585.101562 823.683594 585.113281 823.066406 C 585.191406 814.21875 584.386719 801.167969 584.347656 800.53125 C 584.085938 796.808594 584.402344 793.132812 585.296875 789.511719 C 586.191406 785.890625 587.621094 782.492188 589.582031 779.316406 C 592.136719 775.496094 595.332031 772.328125 599.179688 769.808594 C 599.378906 769.71875 599.476562 769.621094 599.675781 769.621094 C 610.046875 765.847656 619.929688 761.070312 629.324219 755.289062 C 638.722656 749.503906 647.441406 742.835938 655.480469 735.277344 C 663.605469 727.761719 670.847656 719.476562 677.210938 710.421875 C 683.539062 701.402344 688.914062 691.84375 693.335938 681.753906 C 693.574219 681.042969 693.863281 680.355469 694.203125 679.691406 C 694.542969 679.027344 694.929688 678.390625 695.367188 677.785156 C 695.804688 677.179688 696.285156 676.609375 696.808594 676.074219 C 697.332031 675.542969 697.890625 675.050781 698.488281 674.601562 C 699.085938 674.15625 699.714844 673.753906 700.375 673.402344 C 701.03125 673.046875 701.714844 672.746094 702.417969 672.496094 C 703.121094 672.246094 703.839844 672.054688 704.574219 671.914062 C 705.308594 671.773438 706.050781 671.6875 706.796875 671.660156 C 724.117188 666.511719 741.925781 662.152344 758.75 655.730469 C 760.03125 655.417969 761.261719 654.96875 762.445312 654.386719 C 763.628906 653.800781 764.734375 653.09375 765.757812 652.261719 C 766.785156 651.433594 767.710938 650.5 768.53125 649.46875 C 769.351562 648.433594 770.046875 647.324219 770.625 646.136719 C 771.976562 638.144531 771.683594 630.214844 769.738281 622.34375 Z M 86.914062 574.125 C 86.714844 575.121094 86.515625 576.214844 86.316406 577.3125 C 85.917969 579.003906 85.222656 580.695312 84.625 582.488281 C 84.523438 582.359375 84.390625 582.292969 84.226562 582.289062 C 83.527344 581.890625 82.832031 581.394531 82.136719 580.996094 C 81.628906 580.5625 81.097656 580.164062 80.542969 579.800781 C 80.226562 579.554688 79.929688 579.289062 79.648438 579.003906 C 79.050781 578.507812 78.453125 577.910156 77.855469 577.3125 C 77.460938 576.871094 77.09375 576.40625 76.761719 575.917969 C 76.5625 575.617188 76.261719 575.222656 75.964844 574.824219 C 75.566406 574.125 75.265625 573.328125 74.867188 572.632812 C 74.667969 572.433594 74.667969 572.234375 74.570312 572.136719 C 74.523438 571.898438 74.457031 571.664062 74.371094 571.4375 C 74.175781 570.390625 73.910156 569.363281 73.574219 568.351562 C 73.574219 567.15625 73.476562 565.863281 73.476562 564.667969 C 73.675781 563.972656 73.875 563.175781 74.074219 562.480469 C 74.074219 562.28125 74.074219 562.179688 74.171875 562.082031 L 74.273438 561.980469 C 74.570312 561.484375 74.867188 560.886719 75.265625 560.289062 C 75.265625 560.222656 75.300781 560.191406 75.367188 560.191406 C 75.367188 560.089844 75.863281 559.691406 76.261719 559.292969 C 76.5625 559.09375 76.761719 558.894531 76.960938 558.796875 C 77.457031 558.496094 78.054688 558.199219 78.550781 557.898438 L 78.652344 557.898438 C 79.347656 557.699219 80.046875 557.503906 80.640625 557.304688 C 80.839844 557.304688 80.742188 557.304688 80.839844 557.203125 C 81.242188 557.191406 81.640625 557.222656 82.035156 557.304688 C 82.234375 557.402344 82.734375 557.402344 83.132812 557.503906 L 83.332031 557.699219 C 83.445312 557.742188 83.546875 557.808594 83.628906 557.898438 L 84.125 558.398438 C 84.449219 558.742188 84.75 559.109375 85.023438 559.492188 C 85.320312 560.089844 85.71875 560.785156 86.019531 561.484375 L 86.019531 561.582031 C 86.003906 561.699219 86.039062 561.796875 86.117188 561.882812 C 86.316406 562.878906 86.613281 563.773438 86.8125 564.667969 C 86.957031 565.054688 87.023438 565.453125 87.011719 565.863281 C 87.085938 566.191406 87.121094 566.523438 87.113281 566.859375 C 87.210938 567.855469 87.210938 568.851562 87.210938 569.746094 C 87.210938 571.140625 87.011719 572.632812 86.914062 574.125 Z M 656.488281 534.964844 C 656.203125 536.09375 655.875 537.210938 655.5 538.3125 C 655.125 539.417969 654.707031 540.503906 654.246094 541.574219 C 653.785156 542.644531 653.28125 543.691406 652.738281 544.722656 C 652.191406 545.75 651.605469 546.757812 650.980469 547.738281 C 650.355469 548.722656 649.691406 549.675781 648.988281 550.605469 C 648.285156 551.535156 647.546875 552.433594 646.773438 553.304688 C 645.996094 554.171875 645.1875 555.011719 644.347656 555.816406 C 643.503906 556.621094 642.632812 557.390625 641.726562 558.125 C 640.824219 558.859375 639.890625 559.554688 638.933594 560.214844 C 637.972656 560.875 636.988281 561.496094 635.976562 562.078125 C 634.96875 562.65625 633.9375 563.199219 632.882812 563.695312 C 631.832031 564.195312 630.761719 564.648438 629.671875 565.058594 C 628.582031 565.472656 627.476562 565.839844 626.359375 566.164062 C 625.238281 566.488281 624.109375 566.765625 622.96875 566.996094 C 621.824219 567.230469 620.675781 567.417969 619.519531 567.558594 C 618.363281 567.699219 617.203125 567.792969 616.039062 567.839844 C 614.878906 567.886719 613.714844 567.886719 612.550781 567.839844 C 611.386719 567.796875 610.226562 567.703125 609.070312 567.5625 C 607.914062 567.425781 606.761719 567.238281 605.621094 567.007812 C 604.480469 566.777344 603.351562 566.5 602.230469 566.175781 C 601.113281 565.855469 600.007812 565.488281 598.917969 565.078125 C 597.828125 564.667969 596.753906 564.210938 595.703125 563.714844 C 594.648438 563.21875 593.617188 562.679688 592.605469 562.101562 C 591.597656 561.519531 590.609375 560.902344 589.648438 560.242188 C 588.691406 559.585938 587.757812 558.886719 586.851562 558.15625 C 585.949219 557.421875 585.074219 556.652344 584.230469 555.847656 C 583.386719 555.042969 582.578125 554.207031 581.800781 553.339844 C 581.027344 552.472656 580.285156 551.574219 579.582031 550.644531 C 578.878906 549.714844 578.214844 548.761719 577.585938 547.78125 C 576.960938 546.796875 576.375 545.792969 575.828125 544.765625 C 575.28125 543.734375 574.777344 542.6875 574.3125 541.617188 C 573.851562 540.546875 573.433594 539.460938 573.058594 538.359375 C 572.753906 537.496094 572.539062 536.613281 572.40625 535.707031 C 572.277344 534.800781 572.238281 533.890625 572.289062 532.976562 C 572.335938 532.0625 572.476562 531.160156 572.703125 530.273438 C 572.929688 529.386719 573.242188 528.53125 573.636719 527.707031 C 574.03125 526.878906 574.503906 526.101562 575.054688 525.367188 C 575.601562 524.636719 576.21875 523.964844 576.898438 523.351562 C 577.582031 522.742188 578.316406 522.203125 579.101562 521.738281 C 579.890625 521.269531 580.714844 520.886719 581.578125 520.582031 C 582.441406 520.277344 583.328125 520.058594 584.234375 519.929688 C 585.140625 519.800781 586.050781 519.761719 586.964844 519.8125 C 587.878906 519.859375 588.777344 520 589.664062 520.226562 C 590.550781 520.453125 591.40625 520.765625 592.234375 521.160156 C 593.058594 521.554688 593.835938 522.027344 594.570312 522.578125 C 595.300781 523.125 595.972656 523.742188 596.585938 524.421875 C 597.195312 525.101562 597.734375 525.839844 598.203125 526.625 C 598.667969 527.414062 599.054688 528.238281 599.359375 529.101562 C 599.585938 529.75 599.84375 530.375 600.09375 531.011719 C 600.800781 532.109375 601.488281 533.214844 602.265625 534.277344 C 602.554688 534.566406 602.832031 534.855469 603.128906 535.132812 C 604.113281 535.847656 605.050781 536.609375 605.949219 537.425781 C 606.414062 537.691406 606.882812 537.960938 607.359375 538.210938 C 608.039062 538.546875 608.714844 538.835938 609.351562 539.144531 C 610.421875 539.457031 611.503906 539.710938 612.597656 539.914062 L 612.746094 539.914062 C 612.898438 539.941406 613.050781 539.960938 613.203125 539.972656 C 613.671875 539.96875 614.128906 540.027344 614.578125 540.152344 C 614.320312 540.0625 614.199219 540.050781 613.992188 539.980469 C 615.117188 539.933594 616.230469 539.761719 617.335938 539.671875 C 617.960938 539.496094 618.570312 539.296875 619.175781 539.078125 C 619.785156 538.855469 620.230469 538.667969 620.75 538.449219 C 621.664062 537.703125 622.910156 537.15625 623.855469 536.457031 L 624.292969 536.121094 C 624.601562 535.839844 624.929688 535.574219 625.179688 535.304688 C 626.035156 534.40625 626.773438 533.453125 627.527344 532.496094 C 627.886719 531.859375 628.234375 531.242188 628.523438 530.585938 C 628.761719 530.097656 628.960938 529.589844 629.191406 529.09375 C 629.273438 528.855469 629.386719 528.636719 629.539062 528.433594 C 629.761719 527.5625 630.066406 526.714844 630.453125 525.902344 C 630.839844 525.085938 631.300781 524.316406 631.835938 523.59375 C 632.375 522.871094 632.976562 522.203125 633.644531 521.597656 C 634.308594 520.992188 635.03125 520.453125 635.800781 519.988281 C 636.574219 519.523438 637.382812 519.136719 638.230469 518.828125 C 639.078125 518.523438 639.949219 518.300781 640.839844 518.164062 C 641.730469 518.027344 642.628906 517.976562 643.527344 518.015625 C 644.429688 518.050781 645.316406 518.175781 646.195312 518.390625 C 647.070312 518.601562 647.917969 518.894531 648.738281 519.273438 C 649.554688 519.652344 650.328125 520.105469 651.058594 520.632812 C 651.789062 521.164062 652.460938 521.757812 653.074219 522.417969 C 653.6875 523.078125 654.234375 523.792969 654.707031 524.5625 C 655.179688 525.328125 655.574219 526.132812 655.890625 526.976562 C 656.207031 527.824219 656.441406 528.691406 656.585938 529.578125 C 656.734375 530.46875 656.792969 531.363281 656.761719 532.265625 C 656.734375 533.167969 656.621094 534.054688 656.417969 534.933594 Z M 258.308594 326.261719 C 256.914062 318.140625 256.222656 309.960938 256.230469 301.722656 C 256.210938 300.828125 256.246094 299.9375 256.328125 299.046875 C 256.328125 295.78125 256.527344 292.414062 256.824219 289.25 C 257.507812 279.640625 259.144531 270.195312 261.726562 260.914062 C 264.308594 251.632812 267.789062 242.703125 272.164062 234.121094 C 276.390625 225.921875 281.339844 218.183594 287.007812 210.910156 C 290.191406 206.832031 293.589844 202.9375 297.199219 199.230469 C 297.898438 198.445312 298.585938 197.75 299.28125 196.953125 C 305.390625 190.933594 311.957031 185.460938 318.972656 180.527344 C 320.71875 179.3125 322.488281 178.132812 324.285156 176.992188 C 326.082031 175.851562 327.902344 174.753906 329.75 173.691406 C 331.59375 172.632812 333.460938 171.609375 335.351562 170.632812 C 337.238281 169.652344 339.148438 168.714844 341.078125 167.820312 C 343.007812 166.921875 344.957031 166.070312 346.925781 165.257812 C 348.894531 164.445312 350.875 163.675781 352.878906 162.953125 C 354.878906 162.226562 356.894531 161.546875 358.925781 160.910156 C 360.953125 160.273438 362.996094 159.679688 365.054688 159.128906 C 367.109375 158.582031 369.175781 158.078125 371.253906 157.621094 C 373.332031 157.160156 375.421875 156.75 377.515625 156.382812 C 379.613281 156.011719 381.714844 155.691406 383.824219 155.414062 C 385.9375 155.140625 388.050781 154.910156 390.171875 154.726562 C 392.292969 154.542969 394.414062 154.402344 396.539062 154.3125 C 398.667969 154.222656 400.792969 154.175781 402.921875 154.175781 C 405.050781 154.175781 407.175781 154.226562 409.300781 154.320312 C 411.429688 154.414062 413.550781 154.550781 415.671875 154.738281 C 417.792969 154.925781 419.90625 155.15625 422.015625 155.433594 C 424.125 155.710938 426.230469 156.035156 428.324219 156.40625 C 430.421875 156.773438 432.507812 157.191406 434.585938 157.648438 C 436.664062 158.109375 438.730469 158.617188 440.785156 159.167969 C 442.839844 159.714844 444.882812 160.3125 446.914062 160.949219 C 448.941406 161.589844 450.957031 162.273438 452.957031 163 C 454.957031 163.726562 456.941406 164.496094 458.90625 165.308594 C 460.875 166.125 462.820312 166.980469 464.75 167.878906 C 466.679688 168.777344 468.589844 169.714844 470.476562 170.695312 C 472.367188 171.675781 474.230469 172.699219 476.074219 173.761719 C 477.921875 174.824219 479.738281 175.925781 481.535156 177.066406 C 483.332031 178.207031 485.101562 179.390625 486.847656 180.609375 C 488.589844 181.828125 490.308594 183.082031 492 184.375 C 493.6875 185.667969 495.347656 187 496.980469 188.363281 C 498.613281 189.730469 500.214844 191.128906 501.785156 192.566406 C 503.355469 194 504.894531 195.46875 506.402344 196.972656 C 509.8125 200.351562 513.050781 203.886719 516.109375 207.585938 C 519.167969 211.285156 522.039062 215.125 524.714844 219.109375 C 527.394531 223.089844 529.871094 227.195312 532.144531 231.425781 C 534.414062 235.652344 536.472656 239.984375 538.316406 244.414062 C 540.15625 248.847656 541.777344 253.359375 543.171875 257.953125 C 544.566406 262.546875 545.734375 267.195312 546.667969 271.902344 C 547.601562 276.613281 548.300781 281.355469 548.765625 286.132812 C 549.230469 290.910156 549.457031 295.699219 549.445312 300.5 C 549.445312 303.367188 549.355469 306.242188 549.15625 309.007812 C 548.957031 313.460938 548.460938 317.917969 547.863281 322.269531 C 547.574219 324.648438 547.175781 327.015625 546.679688 329.296875 C 545.34375 336.472656 543.472656 343.503906 541.066406 350.390625 C 538.660156 357.28125 535.742188 363.949219 532.320312 370.394531 C 528.894531 376.839844 525.003906 382.988281 520.640625 388.835938 C 516.28125 394.6875 511.5 400.175781 506.304688 405.296875 C 503.945312 407.703125 501.472656 409.980469 498.878906 412.128906 C 470.804688 406.285156 442.4375 403.808594 413.777344 404.703125 C 414.601562 403.566406 415.234375 402.328125 415.671875 400.996094 C 416.113281 399.660156 416.335938 398.292969 416.347656 396.886719 L 416.347656 381.875 C 420.433594 381.558594 424.414062 380.730469 428.292969 379.398438 C 431.648438 378.214844 434.832031 376.675781 437.839844 374.769531 C 440.847656 372.867188 443.605469 370.648438 446.109375 368.117188 C 448.867188 365.371094 451.257812 362.328125 453.277344 359 C 455.296875 355.667969 456.890625 352.144531 458.054688 348.429688 C 458.8125 345.929688 459.371094 343.390625 459.738281 340.804688 C 459.835938 340.007812 459.835938 339.320312 459.9375 338.632812 C 460.027344 337.242188 460.125 335.957031 460.125 334.574219 C 460.125 333.777344 459.9375 332.988281 459.9375 332.09375 L 459.636719 330.023438 C 459.5 328.578125 459.292969 327.140625 459.023438 325.710938 C 458.75 324.285156 458.414062 322.871094 458.011719 321.476562 C 457.609375 320.078125 457.144531 318.703125 456.617188 317.351562 C 456.089844 315.996094 455.5 314.667969 454.851562 313.371094 C 454.199219 312.070312 453.492188 310.804688 452.722656 309.570312 C 451.957031 308.335938 451.136719 307.136719 450.257812 305.980469 C 449.382812 304.820312 448.453125 303.707031 447.472656 302.632812 C 446.492188 301.558594 445.464844 300.535156 444.390625 299.554688 C 443.316406 298.578125 442.199219 297.648438 441.039062 296.773438 C 439.878906 295.898438 438.683594 295.078125 437.445312 294.3125 C 436.210938 293.546875 434.941406 292.839844 433.644531 292.191406 C 432.34375 291.542969 431.015625 290.957031 429.660156 290.429688 C 428.304688 289.90625 426.929688 289.441406 425.53125 289.042969 C 424.136719 288.644531 422.722656 288.308594 421.292969 288.039062 C 419.867188 287.769531 418.429688 287.566406 416.984375 287.429688 C 415.535156 287.292969 414.085938 287.222656 412.632812 287.21875 L 393.113281 287.21875 C 391.785156 287.21875 390.472656 287.089844 389.171875 286.828125 C 387.871094 286.566406 386.613281 286.179688 385.386719 285.667969 C 384.164062 285.152344 383.003906 284.527344 381.90625 283.78125 C 380.808594 283.039062 379.796875 282.191406 378.867188 281.246094 C 378.769531 281.246094 378.769531 281.15625 378.667969 281.058594 C 376.984375 279.40625 375.628906 277.515625 374.605469 275.390625 C 373.578125 273.265625 372.941406 271.03125 372.695312 268.683594 C 372.613281 267.992188 372.578125 267.300781 372.597656 266.605469 C 372.578125 266.203125 372.613281 265.808594 372.695312 265.417969 C 372.757812 262.390625 373.585938 259.585938 375.175781 257.007812 C 376.023438 255.175781 377.179688 253.558594 378.636719 252.160156 C 379.585938 251.207031 380.613281 250.359375 381.730469 249.613281 C 382.84375 248.867188 384.023438 248.238281 385.261719 247.726562 C 386.5 247.210938 387.777344 246.828125 389.09375 246.566406 C 390.410156 246.308594 391.742188 246.183594 393.082031 246.1875 L 412.683594 246.1875 C 413.351562 246.183594 414.019531 246.214844 414.683594 246.277344 C 415.347656 246.339844 416.011719 246.433594 416.664062 246.5625 C 417.320312 246.691406 417.96875 246.851562 418.609375 247.042969 C 419.25 247.234375 419.878906 247.457031 420.5 247.710938 C 421.117188 247.964844 421.71875 248.25 422.3125 248.566406 C 422.902344 248.878906 423.472656 249.222656 424.03125 249.59375 C 424.585938 249.964844 425.121094 250.359375 425.640625 250.785156 C 426.15625 251.207031 426.652344 251.65625 427.125 252.128906 C 427.597656 252.601562 428.042969 253.097656 428.46875 253.613281 C 428.890625 254.132812 429.289062 254.667969 429.660156 255.222656 C 430.03125 255.78125 430.371094 256.355469 430.6875 256.945312 C 431 257.535156 431.285156 258.140625 431.539062 258.757812 C 431.792969 259.375 432.015625 260.003906 432.207031 260.644531 C 432.398438 261.285156 432.558594 261.933594 432.6875 262.589844 C 432.8125 263.246094 432.910156 263.90625 432.972656 264.574219 C 433.035156 265.238281 433.0625 265.90625 433.058594 266.574219 C 433.066406 267.460938 433.15625 268.34375 433.335938 269.210938 C 433.511719 270.082031 433.773438 270.929688 434.113281 271.75 C 434.457031 272.566406 434.875 273.347656 435.371094 274.085938 C 435.867188 274.824219 436.429688 275.507812 437.054688 276.132812 C 437.683594 276.761719 438.367188 277.324219 439.105469 277.820312 C 439.84375 278.3125 440.621094 278.734375 441.441406 279.074219 C 442.261719 279.417969 443.109375 279.679688 443.976562 279.855469 C 444.847656 280.035156 445.730469 280.125 446.617188 280.132812 C 448.328125 280.128906 449.980469 279.808594 451.570312 279.175781 C 453.160156 278.546875 454.578125 277.640625 455.824219 276.46875 C 457.875 274.550781 459.226562 272.226562 459.886719 269.5 C 460 268.839844 460.0625 268.179688 460.074219 267.507812 C 460.160156 267.214844 460.191406 266.917969 460.175781 266.613281 C 460.160156 265.140625 460.078125 263.667969 459.929688 262.203125 C 459.78125 260.734375 459.5625 259.28125 459.28125 257.832031 C 458.996094 256.386719 458.648438 254.957031 458.230469 253.542969 C 457.816406 252.128906 457.335938 250.734375 456.789062 249.367188 C 456.246094 247.996094 455.640625 246.652344 454.972656 245.339844 C 454.304688 244.027344 453.578125 242.746094 452.789062 241.5 C 452.003906 240.25 451.164062 239.042969 450.265625 237.875 C 449.367188 236.707031 448.417969 235.578125 447.417969 234.5 C 446.414062 233.417969 445.367188 232.382812 444.269531 231.398438 C 443.171875 230.414062 442.03125 229.480469 440.847656 228.601562 C 439.667969 227.722656 438.445312 226.898438 437.1875 226.132812 C 435.929688 225.363281 434.636719 224.65625 433.3125 224.007812 C 431.988281 223.363281 430.636719 222.777344 429.257812 222.253906 C 427.882812 221.730469 426.480469 221.269531 425.0625 220.875 C 423.640625 220.484375 422.207031 220.15625 420.753906 219.894531 C 419.304688 219.632812 417.84375 219.4375 416.375 219.308594 L 416.375 204.140625 C 416.371094 203.261719 416.277344 202.390625 416.101562 201.527344 C 415.925781 200.664062 415.667969 199.828125 415.324219 199.019531 C 414.984375 198.207031 414.566406 197.4375 414.074219 196.707031 C 413.585938 195.980469 413.027344 195.304688 412.402344 194.683594 C 411.777344 194.066406 411.097656 193.511719 410.367188 193.023438 C 409.632812 192.539062 408.859375 192.128906 408.046875 191.792969 C 407.234375 191.457031 406.394531 191.207031 405.53125 191.035156 C 404.667969 190.863281 403.796875 190.78125 402.917969 190.78125 C 402.136719 190.78125 401.363281 190.851562 400.597656 190.988281 C 399.832031 191.125 399.082031 191.328125 398.351562 191.59375 C 397.621094 191.863281 396.917969 192.195312 396.246094 192.585938 C 395.570312 192.980469 394.9375 193.425781 394.34375 193.929688 C 393.75 194.433594 393.203125 194.984375 392.707031 195.585938 C 392.207031 196.183594 391.765625 196.824219 391.382812 197.5 C 390.996094 198.175781 390.671875 198.882812 390.414062 199.617188 C 390.152344 200.351562 389.957031 201.101562 389.828125 201.871094 C 389.828125 201.96875 389.726562 202.070312 389.726562 202.167969 C 389.726562 202.269531 389.628906 202.457031 389.628906 202.558594 C 389.457031 203.070312 389.390625 203.597656 389.429688 204.140625 L 389.429688 219.28125 L 389.339844 219.28125 C 386.550781 219.503906 383.804688 219.972656 381.101562 220.683594 C 378.394531 221.398438 375.777344 222.347656 373.242188 223.53125 C 370.707031 224.710938 368.296875 226.109375 366.015625 227.726562 C 363.730469 229.339844 361.605469 231.144531 359.644531 233.136719 C 357.578125 235.1875 355.695312 237.398438 354 239.765625 C 351.78125 242.945312 350 246.355469 348.660156 249.992188 C 347.316406 253.628906 346.460938 257.378906 346.085938 261.238281 C 346.003906 261.597656 345.972656 261.964844 345.988281 262.332031 C 345.871094 263.285156 345.804688 264.242188 345.789062 265.199219 C 345.707031 265.558594 345.671875 265.917969 345.6875 266.285156 L 345.6875 266.582031 C 345.667969 269.703125 345.960938 272.792969 346.5625 275.855469 C 347.160156 278.917969 348.0625 281.886719 349.257812 284.769531 C 350.453125 287.652344 351.925781 290.382812 353.671875 292.96875 C 355.417969 295.554688 357.402344 297.941406 359.625 300.128906 C 361.480469 302.003906 363.480469 303.710938 365.621094 305.25 C 367.761719 306.789062 370.015625 308.136719 372.382812 309.300781 C 374.75 310.460938 377.195312 311.421875 379.722656 312.171875 C 382.25 312.925781 384.820312 313.464844 387.4375 313.789062 C 389.3125 313.988281 391.1875 314.089844 393.074219 314.085938 L 412.671875 314.085938 C 413.804688 314.085938 414.925781 314.1875 416.039062 314.386719 C 418.140625 314.738281 420.136719 315.402344 422.027344 316.382812 C 423.921875 317.363281 425.617188 318.613281 427.117188 320.128906 C 427.214844 320.21875 427.316406 320.316406 427.316406 320.417969 C 428.238281 321.347656 429.058594 322.363281 429.78125 323.457031 C 430.503906 324.550781 431.109375 325.707031 431.601562 326.921875 C 432.09375 328.136719 432.460938 329.386719 432.707031 330.675781 C 432.949219 331.960938 433.0625 333.261719 433.050781 334.574219 C 433.070312 334.9375 433.039062 335.300781 432.960938 335.65625 C 432.964844 336.628906 432.863281 337.585938 432.660156 338.535156 C 432.273438 340.5 431.605469 342.371094 430.660156 344.136719 C 429.71875 345.90625 428.535156 347.5 427.117188 348.917969 C 426.910156 349.175781 426.675781 349.40625 426.417969 349.613281 C 424.5625 351.371094 422.445312 352.71875 420.070312 353.660156 C 417.695312 354.601562 415.226562 355.066406 412.671875 355.058594 L 393.113281 355.058594 C 391.761719 355.070312 390.425781 354.945312 389.101562 354.679688 C 387.777344 354.417969 386.492188 354.019531 385.25 353.492188 C 384.007812 352.964844 382.832031 352.3125 381.722656 351.542969 C 380.613281 350.773438 379.597656 349.898438 378.667969 348.917969 C 376.984375 347.265625 375.628906 345.378906 374.605469 343.253906 C 373.578125 341.132812 372.941406 338.898438 372.695312 336.554688 C 372.609375 335.890625 372.578125 335.230469 372.597656 334.5625 C 372.589844 333.222656 372.390625 331.914062 371.996094 330.632812 C 371.601562 329.351562 371.03125 328.160156 370.28125 327.046875 C 369.53125 325.9375 368.636719 324.960938 367.59375 324.117188 C 366.554688 323.273438 365.414062 322.601562 364.171875 322.097656 C 362.929688 321.59375 361.644531 321.28125 360.308594 321.160156 C 358.976562 321.039062 357.652344 321.113281 356.34375 321.386719 C 355.03125 321.660156 353.789062 322.117188 352.613281 322.757812 C 351.4375 323.398438 350.378906 324.199219 349.441406 325.15625 C 348.394531 326.242188 347.5625 327.472656 346.949219 328.851562 C 346.339844 330.230469 345.980469 331.671875 345.878906 333.179688 C 345.703125 333.625 345.640625 334.085938 345.679688 334.5625 C 345.660156 337.683594 345.953125 340.773438 346.554688 343.832031 C 347.15625 346.894531 348.054688 349.867188 349.25 352.746094 C 350.449219 355.628906 351.917969 358.359375 353.664062 360.949219 C 355.40625 363.535156 357.390625 365.921875 359.617188 368.109375 C 361.589844 370.089844 363.726562 371.882812 366.023438 373.488281 C 368.316406 375.089844 370.734375 376.480469 373.277344 377.652344 C 375.816406 378.828125 378.441406 379.769531 381.152344 380.476562 C 383.859375 381.183594 386.609375 381.648438 389.398438 381.867188 L 389.398438 396.90625 C 389.402344 398.59375 389.710938 400.226562 390.324219 401.796875 C 390.9375 403.367188 391.820312 404.773438 392.960938 406.015625 C 367.328125 408.207031 342.261719 413.21875 317.757812 421.054688 C 311.980469 417.007812 306.574219 412.519531 301.53125 407.589844 C 300.734375 406.902344 300.039062 406.203125 299.152344 405.320312 C 291.882812 398.113281 285.453125 390.226562 279.867188 381.652344 C 274.277344 373.078125 269.65625 364.011719 266.003906 354.453125 C 262.429688 345.332031 259.863281 335.933594 258.308594 326.261719 Z M 258.308594 326.261719 " fill-opacity="1" fill-rule="nonzero"/></svg>